<?xml version="1.0" standalone="no"?>
<!DOCTYPE svg PUBLIC "-//W3C//DTD SVG 20010904//EN" "http://www.w3.org/TR/2001/REC-SVG-20010904/DTD/svg10.dtd">
<svg xmlns="http://www.w3.org/2000/svg" version="1.0" width="109.000000pt" height="109.000000pt" viewBox="0 0 109.000000 109.000000" preserveAspectRatio="xMidYMid meet">
<metadata>
Created by potrace 1.16, written by Peter Selinger 2001-2019
<meta name="Producer" content="Online-Convert"/></metadata>
<g transform="translate(0.000000,109.000000) scale(0.100000,-0.100000)" fill="#000000" stroke="none">
<path d="M321 926 c-9 -11 -4 -15 26 -20 21 -4 55 -14 75 -23 l38 -16 -30 -34 c-19 -21 -30 -45 -30 -64 0 -23 -12 -42 -50 -79 -28 -27 -50 -53 -49 -57 1 -4 1 -21 0 -36 -1 -25 -4 -27 -23 -21 -13 3 -41 19 -63 35 -35 26 -41 28 -54 14 -14 -14 -13 -18 14 -40 17 -13 52 -32 78 -41 45 -15 48 -18 45 -47 -3 -31 -4 -32 -46 -29 -50 4 -79 -13 -61 -34 7 -9 31 -14 61 -14 48 0 49 -1 46 -27 -2 -21 -9 -29 -28 -31 -48 -5 -67 -12 -94 -33 -21 -16 -24 -24 -15 -35 9 -11 20 -9 67 16 60 31 72 31 72 -3 1 -36 39 -110 73 -139 83 -73 161 -90 257 -58 52 17 75 32 117 76 42 45 52 63 58 103 l7 49 35 -8 c19 -5 43 -16 53 -25 19 -17 50 -15 50 4 0 16 -55 46 -95 51 -37 5 -40 8 -43 38 l-3 32 56 0 c48 0 56 2 53 18 -3 13 -14 17 -53 18 -50 1 -50 1 -50 34 0 34 11 45 56 54 29 6 79 46 79 63 0 25 -20 22 -51 -7 -19 -16 -39 -30 -45 -30 -7 0 -20 -3 -29 -6 -12 -5 -16 -2 -14 12 3 29 -16 69 -56 112 -19 22 -38 54 -41 71 -4 17 -20 46 -35 62 -16 17 -29 35 -29 39 0 11 57 30 90 30 33 0 70 24 49 32 -17 6 -149 -20 -164 -32 -16 -13 -118 -15 -140 -2 -20 11 -125 42 -143 42 -5 0 -15 -6 -21 -14z m307 -102 c23 -16 57 -72 49 -81 -8 -7 -238 -9 -243 -2 -8 14 28 80 49 89 37 15 120 11 145 -6z m-93 -339 l0 -220 -30 3 c-51 6 -108 52 -150 121 -5 8 -7 66 -6 129 3 129 11 151 71 176 19 9 53 14 75 13 l40 -2 0 -220z m154 209 c62 -25 81 -68 81 -186 0 -106 -18 -149 -81 -200 -35 -28 -102 -52 -113 -40 -4 3 -6 103 -6 222 l0 216 39 2 c21 2 58 -5 80 -14z m-236 -451 c18 -6 61 -12 97 -12 76 -1 158 32 186 74 27 42 39 15 18 -42 -9 -26 -21 -53 -26 -60 -13 -17 -85 -53 -107 -53 -10 0 -21 -3 -25 -7 -14 -14 -96 -4 -143 18 -55 25 -93 73 -103 131 l-7 37 39 -37 c21 -20 53 -42 71 -49z"/>
</g>
</svg>
